PathFileType	4	(X/Y/Z)	 0.06m3min.trc
DataRate	CameraRate	NumFrames	NumMarkers	Units	OrigDataRate	OrigDataStartFrame	OrigNumFrames
200	200	9	35	m	200	624	997
Frame#	Time	C7			LSH			RSH			MAN			RASI			LASI			HIPR			HIPL			RPSI			LPSI			COX			RTHI1			RTHI2			RTHI3			RTHI4			RSHA1			RSHA2			RSHA3			RSHA4			RHEEL			RMET5			RMET1			RTOE			LTHI1			LTHI2			LTHI3			LTHI4			LSHA1			LSHA2			LSHA3			LSHA4			LHEEL			LMET5			LMET1			LTOE			
		X1	Y1	Z1	X2	Y2	Z2	X3	Y3	Z3	X4	Y4	Z4	X5	Y5	Z5	X6	Y6	Z6	X7	Y7	Z7	X8	Y8	Z8	X9	Y9	Z9	X10	Y10	Z10	X11	Y11	Z11	X12	Y12	Z12	X13	Y13	Z13	X14	Y14	Z14	X15	Y15	Z15	X16	Y16	Z16	X17	Y17	Z17	X18	Y18	Z18	X19	Y19	Z19	X20	Y20	Z20	X21	Y21	Z21	X22	Y22	Z22	X23	Y23	Z23	X24	Y24	Z24	X25	Y25	Z25	X26	Y26	Z26	X27	Y27	Z27	X28	Y28	Z28	X29	Y29	Z29	X30	Y30	Z30	X31	Y31	Z31	X32	Y32	Z32	X33	Y33	Z33	X34	Y34	Z34	X35	Y35	Z35	
624	3.1200	-0.301429	1.599168	-0.537295	-0.255446	1.571024	-0.776080	-0.215022	1.571227	-0.331326	-0.151510	1.538704	-0.558239	-0.140052	1.079484	-0.436754	-0.158741	1.079255	-0.669016	-0.214302	1.144175	-0.383292	-0.231674	1.135923	-0.710278	-0.327545	1.112353	-0.486457	-0.334004	1.115448	-0.590677	-0.336085	1.118084	-0.535408	-0.223567	0.846810	-0.344978	-0.206497	0.790736	-0.336049	-0.143665	0.807082	-0.332070	-0.152896	0.866867	-0.344643	-0.285835	0.401668	-0.314996	-0.304350	0.362864	-0.318649	-0.246977	0.343920	-0.323818	-0.233556	0.381737	-0.324103	-0.427349	0.079073	-0.386560	-0.245461	0.025881	-0.316012	-0.206988	0.040465	-0.407673	-0.176608	0.028803	-0.404840	-0.219410	0.824428	-0.753973	-0.202276	0.765837	-0.761847	-0.139119	0.778487	-0.764075	-0.147153	0.838108	-0.756675	-0.318774	0.356785	-0.752757	-0.336675	0.320992	-0.747713	-0.278177	0.298425	-0.750452	-0.267375	0.340855	-0.755980	-0.452758	0.077963	-0.671357	-0.288788	0.022049	-0.770006	-0.228145	0.037240	-0.685633	-0.196570	0.026757	-0.694622	
625	3.1250	-0.301453	1.596744	-0.537539	-0.255774	1.568251	-0.776321	-0.215309	1.568444	-0.331560	-0.151312	1.535841	-0.558508	-0.140372	1.076758	-0.437140	-0.159060	1.076372	-0.669491	-0.215357	1.140992	-0.383377	-0.232399	1.132451	-0.710674	-0.327910	1.109968	-0.486997	-0.334309	1.113103	-0.591018	-0.336365	1.115949	-0.535821	-0.223984	0.844582	-0.345336	-0.206873	0.788493	-0.336480	-0.144027	0.804820	-0.332413	-0.153289	0.864666	-0.344975	-0.286084	0.399604	-0.315665	-0.304659	0.360880	-0.319376	-0.247288	0.341815	-0.324514	-0.233812	0.379610	-0.324777	-0.428044	0.076655	-0.387562	-0.245675	0.025911	-0.316082	-0.207068	0.040459	-0.407759	-0.176577	0.028793	-0.404780	-0.220171	0.822110	-0.754523	-0.203046	0.763522	-0.762424	-0.139910	0.776215	-0.764993	-0.147947	0.835833	-0.757590	-0.319296	0.354416	-0.752081	-0.337194	0.318632	-0.746897	-0.278729	0.296026	-0.749965	-0.267940	0.338432	-0.755594	-0.453074	0.075665	-0.669425	-0.289065	0.022172	-0.769873	-0.228083	0.037229	-0.685566	-0.196421	0.026750	-0.694796	
626	3.1300	-0.301447	1.594706	-0.537785	-0.256127	1.565888	-0.776544	-0.215600	1.566045	-0.331793	-0.151167	1.533463	-0.558748	-0.140651	1.074422	-0.437591	-0.159401	1.073877	-0.670015	-0.216277	1.138288	-0.383541	-0.233092	1.129515	-0.711087	-0.328251	1.107999	-0.487510	-0.334599	1.111156	-0.591390	-0.336645	1.114185	-0.536241	-0.224272	0.842631	-0.345928	-0.207192	0.786566	-0.336969	-0.144313	0.802874	-0.332830	-0.153606	0.862771	-0.345377	-0.286299	0.397836	-0.316410	-0.304904	0.359162	-0.320134	-0.247544	0.340029	-0.325266	-0.234025	0.377798	-0.325519	-0.428636	0.074567	-0.388564	-0.245895	0.025951	-0.316185	-0.207129	0.040449	-0.407848	-0.176548	0.028787	-0.404715	-0.220910	0.820124	-0.754994	-0.203788	0.761540	-0.762908	-0.140672	0.774286	-0.765828	-0.148731	0.833897	-0.758433	-0.319774	0.352519	-0.751235	-0.337670	0.316757	-0.745908	-0.279252	0.294079	-0.749391	-0.268467	0.336464	-0.755117	-0.453225	0.073710	-0.667468	-0.289307	0.022360	-0.769725	-0.227981	0.037213	-0.685518	-0.196244	0.026749	-0.694993	
627	3.1350	-0.301412	1.593074	-0.538040	-0.256493	1.563957	-0.776757	-0.215888	1.564073	-0.332003	-0.151075	1.531592	-0.558962	-0.140891	1.072500	-0.438110	-0.159765	1.071804	-0.670581	-0.217049	1.136095	-0.383762	-0.233723	1.127158	-0.711525	-0.328569	1.106442	-0.487994	-0.334895	1.109624	-0.591766	-0.336921	1.112792	-0.536654	-0.224467	0.840995	-0.346639	-0.207446	0.784977	-0.337501	-0.144537	0.801290	-0.333338	-0.153854	0.861194	-0.345855	-0.286501	0.396355	-0.317240	-0.305088	0.357708	-0.320928	-0.247739	0.338568	-0.326063	-0.234197	0.376306	-0.326358	-0.429121	0.072801	-0.389571	-0.246116	0.026001	-0.316317	-0.207171	0.040438	-0.407941	-0.176518	0.028785	-0.404649	-0.221608	0.818483	-0.755386	-0.204471	0.759909	-0.763300	-0.141373	0.772712	-0.766560	-0.149483	0.832312	-0.759178	-0.320179	0.351089	-0.750287	-0.338069	0.315361	-0.744825	-0.279711	0.292593	-0.748767	-0.268926	0.334961	-0.754578	-0.453239	0.072119	-0.665582	-0.289534	0.022547	-0.769541	-0.227850	0.037196	-0.685488	-0.196051	0.026758	-0.695198	
628	3.1400	-0.301358	1.591840	-0.538302	-0.256863	1.562477	-0.776966	-0.216158	1.562540	-0.332195	-0.151030	1.530232	-0.559166	-0.141090	1.071010	-0.438693	-0.160151	1.070190	-0.671178	-0.217635	1.134430	-0.384048	-0.234271	1.125409	-0.711988	-0.328856	1.105298	-0.488445	-0.335200	1.108510	-0.592135	-0.337190	1.111756	-0.537060	-0.224611	0.839723	-0.347331	-0.207636	0.783729	-0.338166	-0.144692	0.800083	-0.333932	-0.154028	0.859964	-0.346402	-0.286682	0.395190	-0.318069	-0.305234	0.356530	-0.321752	-0.247875	0.337434	-0.326886	-0.234343	0.375178	-0.327180	-0.429483	0.071396	-0.390553	-0.246330	0.026062	-0.316476	-0.207189	0.040422	-0.408036	-0.176481	0.028786	-0.404587	-0.222238	0.817199	-0.755708	-0.205073	0.758639	-0.763604	-0.141997	0.771502	-0.767169	-0.150162	0.831103	-0.759821	-0.320483	0.350098	-0.749320	-0.338368	0.314401	-0.743738	-0.280069	0.291536	-0.748127	-0.269281	0.333898	-0.754018	-0.453143	0.070916	-0.663867	-0.289732	0.022722	-0.769339	-0.227703	0.037176	-0.685471	-0.195853	0.026779	-0.695394	
629	3.1450	-0.301301	1.590993	-0.538566	-0.257218	1.561463	-0.777174	-0.216396	1.561462	-0.332378	-0.151022	1.529364	-0.559372	-0.141243	1.069965	-0.439330	-0.160550	1.069057	-0.671797	-0.218008	1.133295	-0.384401	-0.234720	1.124277	-0.712477	-0.329106	1.104563	-0.488864	-0.335512	1.107809	-0.592488	-0.337448	1.111096	-0.537457	-0.224726	0.838869	-0.347924	-0.207760	0.782844	-0.338837	-0.144780	0.799240	-0.334588	-0.154130	0.859086	-0.347027	-0.286866	0.394309	-0.318989	-0.305342	0.355609	-0.322622	-0.247959	0.336628	-0.327737	-0.234467	0.374364	-0.328090	-0.429710	0.070408	-0.391465	-0.246528	0.026130	-0.316655	-0.207176	0.040399	-0.408132	-0.176433	0.028787	-0.404536	-0.222777	0.816288	-0.755972	-0.205567	0.757747	-0.763831	-0.142513	0.770668	-0.767646	-0.150743	0.830267	-0.760348	-0.320666	0.349496	-0.748421	-0.338547	0.313830	-0.742738	-0.280310	0.290863	-0.747515	-0.269514	0.333223	-0.753474	-0.452964	0.070118	-0.662423	-0.289889	0.022879	-0.769136	-0.227536	0.037162	-0.685452	-0.195659	0.026806	-0.695548	
630	3.1500	-0.301254	1.590531	-0.538821	-0.257543	1.560928	-0.777383	-0.216586	1.560838	-0.332562	-0.151040	1.528960	-0.559592	-0.141351	1.069364	-0.440009	-0.160940	1.068425	-0.672427	-0.218170	1.132691	-0.384805	-0.235077	1.123754	-0.712978	-0.329309	1.104233	-0.489253	-0.335810	1.107510	-0.592832	-0.337688	1.110799	-0.537836	-0.224797	0.838436	-0.348458	-0.207814	0.782350	-0.339439	-0.144799	0.798737	-0.335293	-0.154170	0.858578	-0.347721	-0.287046	0.393736	-0.319945	-0.305401	0.354973	-0.323471	-0.247991	0.336171	-0.328564	-0.234572	0.373904	-0.329020	-0.429817	0.069858	-0.392252	-0.246700	0.026201	-0.316843	-0.207131	0.040368	-0.408225	-0.176368	0.028790	-0.404498	-0.223201	0.815756	-0.756202	-0.205938	0.757232	-0.763994	-0.142905	0.770215	-0.767988	-0.151207	0.829816	-0.760755	-0.320729	0.349231	-0.747664	-0.338605	0.313597	-0.741912	-0.280417	0.290555	-0.746978	-0.269616	0.332912	-0.752988	-0.452740	0.069718	-0.661325	-0.290002	0.023001	-0.768940	-0.227365	0.037153	-0.685432	-0.195478	0.026835	-0.695650	
631	3.1550	-0.301224	1.590451	-0.539060	-0.257817	1.560871	-0.777595	-0.216717	1.560667	-0.332755	-0.151066	1.528988	-0.559832	-0.141415	1.069203	-0.440715	-0.161303	1.068291	-0.673063	-0.218157	1.132590	-0.385237	-0.235344	1.123811	-0.713489	-0.329457	1.104296	-0.489613	-0.336073	1.107595	-0.593173	-0.337899	1.110859	-0.538198	-0.224805	0.838400	-0.349015	-0.207806	0.782234	-0.340092	-0.144759	0.798601	-0.336054	-0.154158	0.858446	-0.348469	-0.287198	0.393519	-0.320826	-0.305437	0.354699	-0.324307	-0.247980	0.336071	-0.329342	-0.234652	0.373831	-0.329865	-0.429801	0.069728	-0.392913	-0.246836	0.026273	-0.317035	-0.207055	0.040333	-0.408312	-0.176286	0.028793	-0.404478	-0.223495	0.815617	-0.756407	-0.206171	0.757106	-0.764112	-0.143159	0.770149	-0.768208	-0.151520	0.829773	-0.761080	-0.320682	0.349283	-0.747108	-0.338556	0.313676	-0.741322	-0.280394	0.290595	-0.746562	-0.269595	0.332950	-0.752603	-0.452497	0.069709	-0.660626	-0.290066	0.023081	-0.768768	-0.227199	0.037145	-0.685411	-0.195320	0.026860	-0.695697	
632	3.1600	-0.301216	1.590746	-0.539284	-0.258026	1.561285	-0.777812	-0.216786	1.560944	-0.332960	-0.151089	1.529423	-0.560095	-0.141429	1.069469	-0.441430	-0.161619	1.068648	-0.673695	-0.217971	1.132966	-0.385707	-0.235532	1.124415	-0.713997	-0.329540	1.104746	-0.489949	-0.336291	1.108069	-0.593510	-0.338065	1.111275	-0.538551	-0.224727	0.838739	-0.349676	-0.207743	0.782496	-0.340756	-0.144679	0.798853	-0.336844	-0.154098	0.858688	-0.349251	-0.287300	0.393693	-0.321572	-0.305456	0.354818	-0.325088	-0.247940	0.336332	-0.330049	-0.234706	0.374153	-0.330552	-0.429669	0.070007	-0.393443	-0.246935	0.026342	-0.317227	-0.206950	0.040293	-0.408396	-0.176192	0.028796	-0.404477	-0.223654	0.815875	-0.756601	-0.206275	0.757371	-0.764207	-0.143280	0.770464	-0.768322	-0.151673	0.830134	-0.761332	-0.320552	0.349650	-0.746798	-0.338426	0.314055	-0.741010	-0.280268	0.290970	-0.746297	-0.269472	0.333320	-0.752351	-0.452252	0.070075	-0.660351	-0.290073	0.023140	-0.768644	-0.227049	0.037138	-0.685387	-0.195194	0.026877	-0.695689	
